# xmcd CD database file
#
# Track frame offsets:
#	150
#	14331
#	28715
#	42467
#	55908
#	69824
#	83534
#	97579
#	113158
#	126341
#	141100
#	154328
#	168733
#	183137
#	199140
#	213155
#	228607
#	243459
#	257282
#	271167
#
# Disc length: 3829 seconds
#
# Revision: 3
# Processed by: cddbd v1.5.2PL0 Copyright (c) Steve Scherf et al.
# Submitted via: CDex 1.51
#
DISCID=090ef314
DTITLE=Louis Armstrong - Hot Five and Hot Seven - Vol.2  {1927}
DYEAR=2004
DGENRE=Jazz
TTITLE0=Willie The Weeper
TTITLE1=Wild Man Blues
TTITLE2=Alligator Crawl
TTITLE3=Potato Head Blues
TTITLE4=Melancholy
TTITLE5=Weary Blues
TTITLE6=12th Street Rag
TTITLE7=Keyhole Blues
TTITLE8=S.O.L. Blues
TTITLE9=Gully Low Blues
TTITLE10=That's When I'll Come Back To You
TTITLE11=Put 'Em Down Blue
TTITLE12=Ory's Creole Trombone
TTITLE13=The Last Time
TTITLE14=Struttin' With Some Barbecue
TTITLE15=Got Not Blues
TTITLE16=Once In A While
TTITLE17=I'm not Rough
TTITLE18=Hotter Than That
TTITLE19=Savoy Blues
EXTD=YEAR: 2004
EXTT0=
EXTT1=
EXTT2=
EXTT3=
EXTT4=
EXTT5=
EXTT6=
EXTT7=
EXTT8=
EXTT9=
EXTT10=
EXTT11=
EXTT12=
EXTT13=
EXTT14=
EXTT15=
EXTT16=
EXTT17=
EXTT18=
EXTT19=
PLAYORDER=
